<?xml version="1.0" standalone="no"?>
<!DOCTYPE svg PUBLIC "-//W3C//DTD SVG 20010904//EN"
 "http://www.w3.org/TR/2001/REC-SVG-20010904/DTD/svg10.dtd">
<svg version="1.0" xmlns="http://www.w3.org/2000/svg"
 width="500.000000pt" height="500.000000pt" viewBox="0 0 500.000000 500.000000"
 preserveAspectRatio="xMidYMid meet">

<g transform="translate(0.000000,500.000000) scale(0.100000,-0.100000)"
fill="#000000" stroke="none">
<path d="M1500 3690 l0 -310 467 0 468 0 -468 -468 -467 -467 62 -63 63 -62
172 172 173 173 95 -95 95 -95 -172 -172 -173 -173 63 -62 62 -63 463 463
c254 254 465 462 470 462 4 0 7 -207 7 -460 l0 -460 310 0 310 0 0 995 0 995
-1000 0 -1000 0 0 -310z m1645 -50 l90 -90 -175 -175 -175 -175 -94 95 -95 96
170 170 c93 93 173 169 179 169 6 0 51 -41 100 -90z m-622 -802 l-173 -173
-95 95 -95 95 172 172 173 173 95 -95 95 -95 -172 -172z"/>
<path d="M2201 1869 c-94 -18 -168 -98 -192 -206 -16 -72 -1 -169 36 -224 54
-83 168 -125 266 -99 42 11 109 53 109 68 -1 4 -16 25 -35 47 -33 39 -34 39
-54 21 -11 -10 -40 -21 -64 -23 -36 -4 -48 -1 -73 20 -66 56 -70 188 -8 250
37 37 76 43 124 19 l40 -20 31 39 c17 22 29 45 26 53 -7 18 -82 53 -127 59
-19 3 -55 1 -79 -4z"/>
<path d="M2687 1870 c-75 -13 -143 -64 -179 -135 -27 -51 -36 -167 -17 -232
40 -145 231 -215 379 -140 l45 23 3 132 3 132 -101 0 -100 0 0 -60 0 -60 41 0
40 0 -3 -37 c-3 -37 -5 -38 -43 -41 -50 -3 -83 14 -112 57 -27 40 -31 122 -9
176 27 64 104 90 169 57 l37 -20 34 41 c39 47 37 56 -27 85 -54 26 -100 32
-160 22z"/>
<path d="M1520 1865 c0 -3 33 -79 74 -169 74 -161 75 -164 78 -257 l3 -94 68
-3 67 -3 0 89 0 89 80 174 c44 95 80 174 80 176 0 2 -32 3 -72 1 l-72 -3 -38
-105 c-20 -58 -38 -109 -40 -114 -2 -5 -22 42 -44 105 l-41 114 -71 3 c-40 2
-72 0 -72 -3z"/>
<path d="M3028 1864 c-5 -4 -8 -124 -8 -266 l0 -258 70 0 70 0 0 90 0 90 28 0
c24 0 32 -10 72 -86 24 -48 50 -88 56 -91 6 -2 41 -3 77 -1 l66 3 -55 98 -56
98 31 28 c39 36 51 69 51 134 0 118 -63 157 -264 165 -72 2 -134 1 -138 -4z
m258 -129 c39 -52 0 -105 -76 -105 l-50 0 0 66 0 66 56 -4 c40 -3 61 -10 70
-23z"/>
<path d="M1460 1105 c0 -64 16 -91 22 -37 2 19 9 28 26 30 27 4 19 22 -9 22
-33 0 -16 25 19 28 49 5 38 22 -13 22 l-45 0 0 -65z"/>
<path d="M1580 1105 c0 -51 3 -65 15 -65 12 0 15 14 15 65 0 51 -3 65 -15 65
-12 0 -15 -14 -15 -65z"/>
<path d="M1660 1105 c0 -37 4 -65 10 -65 6 0 10 19 10 43 l1 42 25 -42 c38
-63 54 -57 54 22 0 50 -3 65 -14 65 -10 0 -16 -13 -18 -37 l-3 -38 -22 38
c-12 20 -27 37 -33 37 -6 0 -10 -27 -10 -65z"/>
<path d="M1813 1105 c-17 -53 -18 -65 -7 -65 8 0 14 5 14 10 0 6 14 10 30 10
17 0 30 -4 30 -10 0 -5 6 -10 14 -10 11 0 10 12 -7 65 -14 44 -26 65 -37 65
-11 0 -23 -21 -37 -65z m49 0 c4 -19 1 -25 -12 -25 -13 0 -16 6 -12 25 2 14 8
25 12 25 4 0 10 -11 12 -25z"/>
<path d="M1950 1105 c0 -69 17 -90 22 -27 l3 37 24 -37 c36 -58 51 -50 51 27
0 50 -3 65 -14 65 -10 0 -16 -13 -18 -37 l-3 -38 -22 38 c-12 20 -27 37 -33
37 -6 0 -10 -27 -10 -65z"/>
<path d="M2101 1156 c-17 -20 -10 -97 10 -109 21 -13 69 -1 69 18 0 18 -5 19
-30 3 -23 -15 -30 -9 -36 29 -6 41 10 61 36 46 25 -16 30 -16 30 1 0 27 -60
36 -79 12z"/>
<path d="M2230 1105 c0 -37 4 -65 10 -65 6 0 10 28 10 65 0 37 -4 65 -10 65
-6 0 -10 -28 -10 -65z"/>
<path d="M2315 1110 c-10 -33 -15 -63 -10 -68 4 -4 10 -1 12 6 5 14 63 17 63
2 0 -5 6 -10 14 -10 11 0 10 12 -7 65 -28 85 -47 87 -72 5z m47 -5 c4 -19 1
-25 -12 -25 -13 0 -16 6 -12 25 2 14 8 25 12 25 4 0 10 -11 12 -25z"/>
<path d="M2440 1105 l0 -65 45 0 c25 0 45 5 45 10 0 6 -13 10 -30 10 -30 0
-30 1 -30 55 0 42 -3 55 -15 55 -12 0 -15 -14 -15 -65z"/>
<path d="M2634 1156 c-9 -25 1 -109 14 -114 7 -2 12 6 12 21 0 17 7 28 20 32
11 3 20 11 20 16 0 5 -9 9 -20 9 -11 0 -20 7 -20 15 0 10 10 15 30 15 17 0 30
5 30 10 0 16 -80 12 -86 -4z"/>
<path d="M2760 1105 c0 -37 4 -65 10 -65 6 0 10 11 10 25 0 14 6 25 13 25 8 0
19 -11 25 -25 6 -14 16 -25 22 -25 13 0 13 6 -1 32 -8 14 -8 23 0 31 16 16 13
54 -5 61 -9 3 -29 6 -45 6 l-29 0 0 -65z m68 28 c5 -17 -26 -29 -40 -15 -6 6
-7 15 -3 22 9 14 37 9 43 -7z"/>
<path d="M2900 1105 l0 -65 45 0 c25 0 45 5 45 10 0 6 -16 10 -36 10 -28 0
-35 3 -32 18 2 9 13 18 26 20 26 4 20 22 -9 22 -10 0 -19 7 -19 15 0 10 11 15
35 15 19 0 35 5 35 10 0 6 -20 10 -45 10 l-45 0 0 -65z"/>
<path d="M3030 1105 l0 -65 45 0 c25 0 45 5 45 10 0 6 -16 10 -36 10 -28 0
-35 3 -32 18 2 9 11 17 21 17 24 0 22 19 -3 23 -36 6 -24 32 15 32 19 0 35 5
35 10 0 6 -20 10 -45 10 l-45 0 0 -65z"/>
<path d="M3160 1105 l0 -65 33 0 c44 0 57 15 57 65 0 50 -13 65 -57 65 l-33 0
0 -65z m66 21 c8 -35 -4 -66 -27 -66 -16 0 -19 7 -19 45 0 38 3 45 20 45 12 0
22 -9 26 -24z"/>
<path d="M3300 1151 c-26 -50 -4 -111 40 -111 33 0 50 23 50 65 0 42 -17 65
-50 65 -19 0 -33 -7 -40 -19z m55 -47 c0 -28 -4 -39 -15 -39 -16 0 -26 45 -16
72 11 28 31 7 31 -33z"/>
<path d="M3430 1105 c0 -51 3 -65 15 -65 11 0 15 12 15 43 1 34 3 39 11 24 10
-18 12 -18 30 -1 18 17 19 16 19 -24 0 -23 5 -42 10 -42 6 0 10 28 10 65 0 70
-10 80 -40 43 l-17 -22 -12 22 c-6 12 -18 22 -26 22 -12 0 -15 -15 -15 -65z"/>
<path d="M1827 903 c-4 -3 -7 -17 -7 -30 0 -18 8 -27 30 -34 17 -6 30 -17 30
-25 0 -17 -22 -18 -37 -3 -6 6 -17 9 -23 7 -9 -3 -7 -9 5 -21 22 -22 64 -19
79 6 11 19 1 32 -50 64 -18 11 -18 11 0 19 13 5 21 3 24 -4 4 -13 32 -17 32
-4 0 25 -64 44 -83 25z"/>
<path d="M1950 900 c0 -5 7 -10 15 -10 12 0 15 -13 15 -55 0 -42 3 -55 15 -55
12 0 15 13 15 55 0 42 3 55 15 55 8 0 15 5 15 10 0 6 -20 10 -45 10 -25 0 -45
-4 -45 -10z"/>
<path d="M2097 849 c-18 -62 -16 -82 5 -61 15 15 58 16 58 2 0 -5 7 -10 16
-10 9 0 14 6 12 13 -3 6 -13 36 -22 65 -24 73 -46 70 -69 -9z m52 -21 c1 -5
-6 -8 -14 -8 -15 0 -21 31 -8 44 7 6 20 -17 22 -36z"/>
<path d="M2230 846 c0 -37 4 -66 10 -66 10 0 14 14 11 38 -3 22 26 13 37 -13
6 -14 16 -25 22 -25 13 0 13 6 -1 31 -7 15 -7 24 1 34 6 8 10 24 8 37 -2 19
-10 23 -45 26 l-43 3 0 -65z m68 27 c5 -17 -26 -29 -40 -15 -6 6 -7 15 -3 22
9 14 37 9 43 -7z"/>
<path d="M2360 901 c0 -5 9 -11 20 -14 17 -4 20 -14 20 -56 0 -28 5 -51 10
-51 6 0 10 25 10 55 0 48 2 55 20 55 11 0 20 5 20 10 0 6 -22 10 -50 10 -27 0
-50 -4 -50 -9z"/>
<path d="M2500 889 c-14 -25 -1 -44 35 -53 14 -4 25 -13 25 -21 0 -17 -26 -20
-35 -5 -3 6 -13 10 -21 10 -12 0 -12 -4 -4 -20 21 -39 102 -16 86 25 -3 9 -19
21 -36 26 -16 6 -30 17 -30 25 0 16 26 19 35 4 3 -5 13 -10 21 -10 12 0 12 4
4 20 -15 27 -66 27 -80 -1z"/>
<path d="M2690 844 c0 -47 3 -65 12 -62 7 3 13 15 13 29 0 36 39 33 43 -3 6
-54 22 -27 22 37 0 37 -4 65 -10 65 -5 0 -10 -11 -10 -25 0 -20 -5 -25 -25
-25 -15 0 -25 5 -24 13 3 23 -1 37 -11 37 -6 0 -10 -29 -10 -66z"/>
<path d="M2830 845 l0 -65 45 0 c25 0 45 5 45 10 0 6 -16 10 -35 10 -39 0 -49
24 -15 35 11 3 20 11 20 16 0 5 -9 9 -20 9 -11 0 -20 7 -20 15 0 10 11 15 35
15 19 0 35 5 35 10 0 6 -20 10 -45 10 l-45 0 0 -65z"/>
<path d="M2960 846 c0 -37 4 -66 10 -66 6 0 10 9 10 19 0 22 22 41 27 24 7
-21 32 -48 38 -41 4 3 1 16 -5 28 -9 16 -9 25 0 35 6 8 10 24 8 37 -2 19 -10
23 -45 26 l-43 3 0 -65z m67 28 c4 -13 -24 -27 -37 -19 -5 3 -7 12 -3 21 6 17
34 15 40 -2z"/>
<path d="M3092 848 l3 -63 43 -3 c25 -2 42 1 42 7 0 6 -13 11 -30 11 -23 0
-30 4 -30 20 0 11 3 19 8 19 18 -3 32 2 32 11 0 6 -9 10 -20 10 -11 0 -20 7
-20 15 0 10 10 15 30 15 17 0 30 5 30 10 0 6 -20 10 -45 10 l-46 0 3 -62z"/>
</g>
</svg>
